<?xml version="1.0" standalone="no"?><!DOCTYPE svg PUBLIC "-//W3C//DTD SVG 1.1//EN" "http://www.w3.org/Graphics/SVG/1.1/DTD/svg11.dtd"><svg t="1610415065166" class="icon" viewBox="0 0 1024 1024" version="1.1" xmlns="http://www.w3.org/2000/svg" p-id="3891" xmlns:xlink="http://www.w3.org/1999/xlink" width="200" height="200"><defs><style type="text/css"></style></defs><path d="M809.150171 1024H219.740648A107.885714 107.885714 0 0 1 111.854933 914.285714V107.885714A107.885714 107.885714 0 0 1 219.740648 0h400.457142a29.257143 29.257143 0 0 1 20.72381 8.533333l261.485714 243.809524a29.257143 29.257143 0 0 1 9.752381 21.942857v646.704762a103.009524 103.009524 0 0 1-103.009524 103.009524zM219.740648 60.952381a47.542857 47.542857 0 0 0-46.933334 46.933333V914.285714a47.542857 47.542857 0 0 0 46.933334 46.933334h589.409523a42.057143 42.057143 0 0 0 42.057143-42.057143V289.52381L608.007314 60.952381z" fill="#333333" p-id="3892"></path><path d="M606.788267 332.190476a30.47619 30.47619 0 0 1-30.476191-30.47619V37.180952a31.085714 31.085714 0 0 1 30.476191-30.47619 30.47619 30.47619 0 0 1 30.47619 30.47619V304.761905a30.47619 30.47619 0 0 1-30.47619 27.428571z" fill="#333333" p-id="3893"></path><path d="M867.664457 332.190476H606.788267a30.47619 30.47619 0 0 1 0-60.952381h260.87619a30.47619 30.47619 0 0 1 0 60.952381zM437.340648 254.171429H307.512076a30.47619 30.47619 0 0 1 0-60.952381h129.828572a30.47619 30.47619 0 0 1 0 60.952381zM701.264457 561.371429H307.512076a30.47619 30.47619 0 0 1-30.47619-30.476191 31.085714 31.085714 0 0 1 30.47619-30.47619h393.752381a30.47619 30.47619 0 0 1 30.476191 30.47619 30.47619 30.47619 0 0 1-30.476191 30.476191zM701.264457 773.485714H307.512076a30.47619 30.47619 0 0 1-30.47619-30.47619 31.085714 31.085714 0 0 1 30.47619-30.476191h393.752381a30.47619 30.47619 0 0 1 30.476191 30.476191 30.47619 30.47619 0 0 1-30.476191 30.47619z" fill="#333333" p-id="3894"></path></svg>