<?xml version="1.0" standalone="no"?><!DOCTYPE svg PUBLIC "-//W3C//DTD SVG 1.1//EN" "http://www.w3.org/Graphics/SVG/1.1/DTD/svg11.dtd"><svg t="1610071950693" class="icon" viewBox="0 0 1117 1024" version="1.1" xmlns="http://www.w3.org/2000/svg" p-id="55393" xmlns:xlink="http://www.w3.org/1999/xlink" width="218.1640625" height="200"><defs><style type="text/css"></style></defs><path d="M185.530182 255.627636A403.549091 403.549091 0 0 1 559.848727 0c171.566545 0 312.971636 106.775273 371.712 255.627636A255.069091 255.069091 0 0 1 1117.090909 502.504727 259.351273 259.351273 0 0 1 855.505455 761.483636a53.992727 53.992727 0 0 1-52.13091-52.130909 51.2 51.2 0 0 1 52.13091-51.944727c88.064 0 158.254545-68.794182 158.254545-154.903273 0-45.986909-26.717091-155.461818-161.605818-155.461818-25.134545-165.050182-161.605818-243.618909-292.305455-243.618909-130.699636 0-261.678545 75.496727-292.305454 243.525818-82.013091 0-160.861091 56.226909-160.861091 155.554909 0 86.109091 70.097455 154.810182 154.810182 154.810182 31.371636 0 54.737455 20.759273 54.737454 52.130909a53.620364 53.620364 0 0 1-54.737454 52.037818C118.784 761.483636 0 645.306182 0 502.504727c0-115.432727 79.406545-216.901818 185.530182-246.877091z" fill="#2F75F5" p-id="55394"></path><path d="M350.394182 690.920727c0-15.36 5.957818-26.717091 11.915636-36.677818l158.254546-173.428364A54.923636 54.923636 0 0 1 559.941818 465.454545a61.44 61.44 0 0 1 40.029091 15.36l154.810182 173.428364a51.013818 51.013818 0 0 1 15.36 36.677818c0 27.368727-23.365818 51.386182-54.737455 51.386182-15.36 0-26.717091-8.005818-36.770909-17.966545l-66.653091-72.797091v261.585454c0 31.464727-23.365818 51.479273-52.130909 51.479273-29.975273 0-51.386182-20.014545-51.386182-51.386182V651.636364l-66.65309 72.704a58.833455 58.833455 0 0 1-40.029091 18.059636 52.782545 52.782545 0 0 1-51.386182-51.386182z" fill="#47BC87" p-id="55395"></path></svg>