<?xml version="1.0" standalone="no"?><!DOCTYPE svg PUBLIC "-//W3C//DTD SVG 1.1//EN" "http://www.w3.org/Graphics/SVG/1.1/DTD/svg11.dtd"><svg t="1610071939319" class="icon" viewBox="0 0 1024 1024" version="1.1" xmlns="http://www.w3.org/2000/svg" p-id="55263" xmlns:xlink="http://www.w3.org/1999/xlink" width="200" height="200"><defs><style type="text/css"></style></defs><path d="M814.08 327.168l-35.84-213.504c-1.536-8.704-8.704-14.848-17.408-14.848H263.168c-8.704 0-15.872 6.144-17.408 14.848l-35.84 213.504c-1.024 5.12 0.512 10.24 4.096 14.336 3.584 4.096 8.192 6.144 13.824 6.144h568.832c5.12 0 10.24-2.048 13.312-6.144 3.584-4.096 4.608-9.216 4.096-14.336z" fill="#0073FF" p-id="55264"></path><path d="M809.984 389.632c-3.584-3.584-8.192-6.144-13.312-6.144H227.328c-5.12 0-10.24 2.048-13.312 6.144-3.584 3.584-5.12 9.216-4.096 13.824L281.088 936.96c1.024 8.704 8.704 15.36 17.408 15.36h426.496c8.704 0 16.384-6.656 17.408-15.36l71.68-533.504c0.512-5.12-1.024-10.24-4.096-13.824z" fill="#FFCD2C" p-id="55265"></path><path d="M849.92 312.32H174.08c-9.728 0-17.92 8.192-17.92 17.92v71.168c0 9.728 8.192 17.92 17.92 17.92h675.84c9.728 0 17.92-8.192 17.92-17.92V330.24c-0.512-9.728-8.192-17.92-17.92-17.92z" fill="#2196F3" p-id="55266"></path><path d="M351.744 98.816h320v106.496H351.744V98.816z" fill="#CE9F06" p-id="55267"></path><path d="M334.336 241.152h355.328c9.728 0 17.92-8.192 17.92-17.92V98.816h-35.328v106.496H351.744V98.816h-35.328v124.416c0 10.24 8.192 17.92 17.92 17.92z" fill="#5BC1FB" p-id="55268"></path><path d="M592.384 734.72l2.56 15.872c10.752 4.096 10.24 0.512 20.48-1.024-28.672 47.104-89.088 70.144-143.36 49.664-20.992-8.192-29.696-16.896-44.032-26.624-7.68 4.096-13.824 9.216-17.408 17.408 59.392 57.344 147.968 55.808 205.824-0.512 9.728-9.728 14.336-17.92 23.04-27.648l5.12 17.408 17.92-3.072c-0.512-10.24-3.072-15.872-5.12-25.088-3.072-11.776-1.536-16.896-12.288-20.992-18.944-7.68-34.816 0.512-52.736 4.608zM517.12 593.408l12.288-11.776c-5.12-7.68-5.632-5.12-9.728-14.336 56.32 0.512 99.328 43.52 111.104 89.6 6.656 26.624 1.024 37.376 1.024 61.952l23.552 6.144c8.704-57.344-0.512-96.256-28.672-130.56-23.04-28.16-59.904-51.712-109.568-53.76 4.608-7.168 7.168-7.68 11.776-15.36-4.096-7.68-4.608-6.656-10.752-12.8-8.192 3.584-33.28 23.552-31.232 39.936 1.536 18.944 19.456 35.328 30.208 40.96z m-132.096 163.328l-19.456-3.072-4.096 15.872c11.264 8.192 38.912 15.872 49.152 8.192 12.288-9.728 22.528-32.768 18.944-48.128l-14.336-4.608c-0.512 0.512-1.024 1.024-1.024 2.048l-2.56 5.632c-2.048 5.12-1.024 3.584-3.584 8.704-27.136-28.16-26.112-140.8 73.216-171.008l-4.096-24.576c-84.48 19.968-137.728 115.2-92.16 210.944z" fill="#FFFFFF" p-id="55269"></path></svg>