<?xml version="1.0" standalone="no"?><!DOCTYPE svg PUBLIC "-//W3C//DTD SVG 1.1//EN" "http://www.w3.org/Graphics/SVG/1.1/DTD/svg11.dtd"><svg t="1610083422567" class="icon" viewBox="0 0 1053 1024" version="1.1" xmlns="http://www.w3.org/2000/svg" p-id="17226" xmlns:xlink="http://www.w3.org/1999/xlink" width="205.6640625" height="200"><defs><style type="text/css"></style></defs><path d="M895.074559 1023.7108a114.812472 114.812472 0 0 1-76.291007-31.00226l-297.876186-297.876186a35.398102 35.398102 0 0 1 50.060551-50.060551l297.876186 297.876186a34.530502 34.530502 0 0 0 50.060551 0 35.860822 35.860822 0 0 0 9.543606-26.230456 49.973791 49.973791 0 0 0-9.543606-26.230457L623.31315 594.653412a35.398102 35.398102 0 1 1 50.060551-50.060552l297.876186 297.876187a110.272029 110.272029 0 0 1 31.002259 76.291007 114.812472 114.812472 0 0 1-31.002259 76.291008 125.368278 125.368278 0 0 1-76.175328 28.659738z m-462.431089-619.755988L232.401265 203.799367a96.01446 96.01446 0 0 0-21.458653-104.892905L144.19521 32.15906a36.207863 36.207863 0 0 0-47.66019 0L10.729327 117.964754a34.704022 34.704022 0 0 0 0 50.060551l66.747401 66.747402a102.434704 102.434704 0 0 0 66.747402 26.230456 107.958427 107.958427 0 0 0 38.145504-7.143244l200.242205 200.242205a40.806146 40.806146 0 0 0 52.431993 0 36.930863 36.930863 0 0 0-2.400362-50.147312zM127.53728 182.282874l-40.488026-40.488025 33.373701-33.373701 40.488026 40.488025A23.598735 23.598735 0 1 1 127.53728 182.282874z" fill="#12B9FF" p-id="17227"></path><path d="M165.653864 1023.7108a161.952101 161.952101 0 0 1-116.807953-47.66019 167.533665 167.533665 0 0 1-47.66019-119.179394 157.324898 157.324898 0 0 1 52.431993-116.807953l431.428829-381.397199A288.18798 288.18798 0 0 1 830.669679 8.271125a36.381383 36.381383 0 0 1 26.230457 26.230457 33.142341 33.142341 0 0 1-9.543606 35.745142l-49.973792 50.147311a96.10122 96.10122 0 0 0 135.924085 135.924085l50.060552-50.060551a38.174424 38.174424 0 0 1 35.745142-9.543606 41.008586 41.008586 0 0 1 26.230456 26.230456 286.308179 286.308179 0 0 1-352.82422 343.251695L287.23362 973.534568a164.178943 164.178943 0 0 1-116.807953 50.060552zM740.121103 70.246724a214.528694 214.528694 0 0 0-181.154994 286.047899 37.075463 37.075463 0 0 1-9.543606 38.145504l-448.26028 398.084048a86.557614 86.557614 0 0 0-28.601898 66.747402 89.652056 89.652056 0 0 0 92.977858 92.977858 90.201536 90.201536 0 0 0 66.747402-28.601898l422.029824-424.401265a42.859467 42.859467 0 0 1 38.145504-9.543606 214.528694 214.528694 0 0 0 286.047899-181.154993 166.984184 166.984184 0 0 1-231.360145-4.771803 170.107546 170.107546 0 0 1-6.998644-233.558066z" fill="#0860C6" p-id="17228"></path></svg>