<?xml version="1.0" standalone="no"?><!DOCTYPE svg PUBLIC "-//W3C//DTD SVG 1.1//EN" "http://www.w3.org/Graphics/SVG/1.1/DTD/svg11.dtd"><svg t="1610071918921" class="icon" viewBox="0 0 1024 1024" version="1.1" xmlns="http://www.w3.org/2000/svg" p-id="55137" xmlns:xlink="http://www.w3.org/1999/xlink" width="200" height="200"><defs><style type="text/css"></style></defs><path d="M419.8 379.42l-1.15 1.98c1.49-0.52 2.94-1.18 4.36-1.98h-3.21zM484 450.51h14.75l-18.03-31.23-11.34 19.64A21.43 21.43 0 0 1 484 450.51zM467.09 442.9l-4.39 7.61h16.34c-2.64-4.05-6.95-6.92-11.95-7.61z" fill="#FFFFFF" p-id="55138"></path><path d="M576.7 865.54c-20.66 0.01-38.04-15.49-40.36-36.01l-47.18-414.62-76.53 283.01c-4.97 18.09-21.68 30.43-40.43 29.85-18.75-0.57-34.67-13.91-38.52-32.27L291.3 489.73l-21.36 50.9c-6.32 15.08-21.08 24.9-37.44 24.91H104.53c-22.42 0-40.6-18.18-40.6-40.6 0-22.41 18.18-40.59 40.6-40.59h100.99l61.65-146.98c6.87-16.43 23.66-26.47 41.39-24.74 17.73 1.72 32.27 14.81 35.84 32.27L378.82 512l87.48-323.54c5.09-18.81 22.81-31.35 42.25-29.88 19.43 1.47 35.07 16.53 37.28 35.88l48.29 424.46 81.24-280.42a40.601 40.601 0 0 1 37.45-29.27c17.49-0.67 33.43 9.94 39.56 26.32l55.71 148.8h111.4c22.42 0 40.6 18.17 40.6 40.58 0 22.42-18.18 40.59-40.6 40.59H779.91c-16.92 0-32.08-10.49-38.03-26.34l-22.62-60.46-103.59 357.53c-5.03 17.33-20.91 29.28-38.97 29.29" fill="#025AFA" p-id="55139"></path></svg>