<svg xmlns="http://www.w3.org/2000/svg" width="360" height="360" viewBox="0 0 360 360">
  <defs>
    <style>
      .cls-1 {
        fill: #148;
        fill-rule: evenodd;
      }
    </style>
  </defs>
  <path id="_2" data-name="2" class="cls-1" d="M5092,598a180,180,0,1,1,127.28-52.721A178.825,178.825,0,0,1,5092,598Zm0-358.386c-98.36,0-178.39,80.024-178.39,178.386S4993.64,596.386,5092,596.386,5270.39,516.362,5270.39,418,5190.36,239.614,5092,239.614ZM4951.71,434.063l-19.05,2.1-0.08-.887,19.05-2.1Zm-0.8-10.9-13.4.484v-0.888l13.4-.4v0.807Zm0-10.9-13.4-.565v-0.888l13.4,0.565v0.888Zm0.88-10.978-19.05-2.34,0.09-.888,19.04,2.341Zm1.7-10.735-13.16-2.664,0.16-.888,13.16,2.664Zm2.5-10.655-12.91-3.632,0.24-.888,12.91,3.632Zm3.39-10.493-18-6.619,0.32-.807,18,6.619Zm4.2-10.09-12.19-5.65,0.4-.807,12.19,5.65Zm4.92-9.766-11.7-6.539,0.48-.807,11.71,6.538Zm5.65-9.364-15.98-10.654,0.48-.727,15.99,10.655Zm6.38-8.879L4969.96,323l0.56-.727,10.57,8.314Zm7.02-8.313-9.85-9.122,0.65-.645,9.93,9.04Zm7.75-7.83-13.16-14.045,0.65-.565,13.16,13.964Zm8.23-7.184-8.39-10.493,0.73-.565,8.39,10.493Zm8.8-6.538-7.59-11.139,0.81-.484,7.59,11.139Zm9.2-5.812L5012.01,279l0.81-.4,9.52,16.628Zm9.69-5.085-5.73-12.108,0.81-.4,5.73,12.107Zm10.09-4.359-4.76-12.511,0.88-.323,4.77,12.512Zm10.33-3.551-5.41-18.4,0.89-.242,5.41,18.4Zm10.58-2.664-2.75-13.157,0.89-.161,2.74,13.157Zm10.81-1.856-1.77-13.319,0.88-.081,1.78,13.319Zm10.9-1.05-1.05-19.13,0.89-.08,1.05,19.13Zm10.98-.242,0.32-13.4h0.89l-0.33,13.4h-0.88Zm10.89,0.646,1.37-13.4,0.89,0.08-1.37,13.4Zm10.82,1.453,3.39-18.888,0.89,0.161-3.39,18.888Zm10.73,2.341,3.39-13,0.89,0.242-3.39,13Zm10.5,3.148,4.36-12.673,0.88,0.323-4.35,12.672Zm10.17,3.955,7.67-17.6,0.8,0.323-7.66,17.6Zm9.85,4.762,6.29-11.865,0.81,0.4-6.3,11.866Zm9.44,5.408,7.18-11.3,0.81,0.484-7.18,11.3Zm9.04,6.215,11.54-15.336,0.73,0.565-11.54,15.336Zm8.56,6.861,8.87-10.089,0.73,0.645-8.88,10.09Zm7.91,7.588,9.6-9.363,0.65,0.645-9.61,9.364Zm7.34,8.072L5214.85,315l0.57,0.646-14.69,12.269Zm6.7,8.636,10.98-7.749,0.56,0.727-10.97,7.749Zm6.05,9.2,11.55-6.942,0.48,0.808-11.54,6.941Zm5.33,9.525,17.19-8.556,0.41,0.807-17.19,8.556Zm4.52,9.928,12.43-5,0.33,0.887-12.43,5Zm3.72,10.332,12.83-4.036,0.24,0.888-12.83,4.036Zm2.98,10.574,18.65-4.359,0.16,0.888-18.65,4.359Zm2.02,10.655,13.32-2.018,0.16,0.888-13.32,2.017Zm1.29,10.9,13.4-.968,0.08,0.888-13.4.968Zm0.4,10.9,19.13,0.323v0.888l-19.13-.323v-0.888Zm-0.4,10.978,13.4,1.049-0.08.888-13.4-1.049Zm-1.29,10.9,13.24,2.1-0.16.888-13.24-2.1Zm-2.02,10.735,18.65,4.44-0.24.888-18.65-4.44Zm-2.98,10.493,12.75,4.117-0.32.888-12.76-4.117Zm-3.72,10.332,12.43,5.085-0.32.888-12.43-5.085Zm-4.52,9.929,17.11,8.636-0.4.807-17.11-8.636Zm-5.33,9.6,11.47,6.942-0.49.807-11.46-6.942Zm-5.97,9.121,10.9,7.83-0.57.726-10.89-7.83Zm-6.7,8.717,14.61,12.35-0.56.646-14.61-12.35Zm-7.34,8.072,9.6,9.444-0.64.646-9.61-9.444Zm-7.99,7.507,8.79,10.17-0.72.646-8.8-10.17Zm-8.48,6.861,11.46,15.417-0.72.565-11.47-15.417Zm-9.04,6.215,7.18,11.381-0.8.485-7.19-11.381Zm-9.44,5.489,6.21,11.865-0.81.4-6.21-11.865Zm-9.93,4.762,7.59,17.6-0.81.323-7.59-17.6Zm-10.17,3.955,4.36,12.754-0.89.323-4.36-12.754Zm-10.5,3.148,3.31,13-0.88.242-3.31-13Zm-10.65,2.341,3.31,18.888-0.89.162-3.31-18.888Zm-10.82,1.453,1.29,13.4-0.88.081-1.29-13.4Zm-10.97.646,0.24,13.4h-0.89l-0.24-13.4h0.89Zm-10.98-.242-1.13,19.13-0.89-.081,1.13-19.13Zm-10.82-.969-1.85,13.319-0.89-.162,1.85-13.318Zm-10.81-1.937-2.83,13.157-0.89-.162,2.83-13.157Zm-10.66-2.664-5.49,18.323-0.8-.242,5.48-18.323Zm-10.25-3.551-4.84,12.511-0.89-.323,4.84-12.511Zm-10.09-4.278-5.81,12.107-0.81-.4,5.81-12.108Zm-9.69-5.086L5012.01,557l-0.73-.4,9.61-16.547Zm-9.28-5.811-7.59,11.058-0.72-.565,7.59-11.058Zm-8.8-6.619-8.39,10.493-0.73-.565,8.48-10.412Zm-8.23-7.1-13.16,13.964-0.64-.646,13.15-13.964Zm-7.67-7.83-9.93,9.041-0.64-.727,9.93-8.96Zm-7.02-8.394-10.65,8.233-0.57-.727,10.65-8.233Zm-6.46-8.879-15.98,10.493-0.48-.727,15.98-10.493Zm-5.65-9.283-11.78,6.458-0.49-.808,11.79-6.457Zm-4.92-9.847-12.27,5.569-0.4-.807,12.26-5.57Zm-4.2-10.09-18,6.538-0.32-.807,18-6.538Zm-3.31-10.413-12.91,3.552-0.25-.888,12.92-3.552Zm-2.58-10.654-13.16,2.583-0.16-.888,13.16-2.583Z" transform="translate(-4912 -238)"/>
</svg>
