<?xml version="1.0" standalone="no"?><!DOCTYPE svg PUBLIC "-//W3C//DTD SVG 1.1//EN" "http://www.w3.org/Graphics/SVG/1.1/DTD/svg11.dtd"><svg t="1620974902235" class="icon" viewBox="0 0 1024 1024" version="1.1" xmlns="http://www.w3.org/2000/svg" p-id="2549" xmlns:xlink="http://www.w3.org/1999/xlink" width="200" height="200"><defs><style type="text/css"></style></defs><path d="M896.5 328.5h-256c-13.3 0-24-10.7-24-24v-256c0-13.3 10.7-24 24-24s24 10.7 24 24v232h232c13.3 0 24 10.7 24 24s-10.7 24-24 24z" fill="#3E50B3" p-id="2550"></path><path d="M896.5 1000.5h-768c-13.3 0-24-10.7-24-24v-928c0-13.3 10.7-24 24-24h512c6.4 0 12.5 2.5 17 7l256 256c4.5 4.5 7 10.6 7 17v672c0 13.3-10.7 24-24 24z m-744-48h720V314.4L630.6 72.5H152.5v880z" fill="#3E50B3" p-id="2551"></path><path d="M704.5 792.5h-384c-13.3 0-24-10.7-24-24s10.7-24 24-24h384c13.3 0 24 10.7 24 24s-10.7 24-24 24zM704.5 632.5h-384c-13.3 0-24-10.7-24-24s10.7-24 24-24h384c13.3 0 24 10.7 24 24s-10.7 24-24 24zM704.5 472.5h-384c-13.3 0-24-10.7-24-24s10.7-24 24-24h384c13.3 0 24 10.7 24 24s-10.7 24-24 24zM448.5 312.5h-128c-13.3 0-24-10.7-24-24s10.7-24 24-24h128c13.3 0 24 10.7 24 24s-10.7 24-24 24z" fill="#3E50B3" p-id="2552"></path></svg>