<svg 
 xmlns="http://www.w3.org/2000/svg"
 xmlns:xlink="http://www.w3.org/1999/xlink"
 width="18px" height="18px">
<path fill-rule="evenodd"  fill="rgb(170, 170, 170)"
 d="M6.870,-0.000 L6.420,2.271 C5.668,2.549 4.974,2.939 4.363,3.431 L2.145,2.679 L0.006,6.321 L1.784,7.836 C1.719,8.216 1.680,8.603 1.680,9.000 C1.680,9.397 1.719,9.784 1.784,10.164 L0.006,11.682 L2.145,15.318 L4.363,14.569 C4.974,15.061 5.668,15.451 6.420,15.729 L6.870,18.000 L11.141,18.000 L11.592,15.729 C12.343,15.451 13.037,15.061 13.649,14.569 L15.870,15.318 L18.005,11.682 L16.228,10.164 C16.292,9.784 16.331,9.397 16.331,9.000 C16.331,8.603 16.292,8.216 16.228,7.836 L18.005,6.321 L15.870,2.679 L13.649,3.431 C13.037,2.939 12.343,2.549 11.592,2.271 L11.141,-0.000 L6.870,-0.000 ZM9.006,5.400 C11.030,5.400 12.669,7.010 12.669,9.000 C12.669,10.990 11.030,12.600 9.006,12.600 C6.981,12.600 5.343,10.990 5.343,9.000 C5.343,7.010 6.981,5.400 9.006,5.400 Z"/>
</svg>